<svg width="400" height="400" viewBox="0 0 400 400" fill="none" xmlns="http://www.w3.org/2000/svg">
<path fill-rule="evenodd" clip-rule="evenodd" d="M292 0.423013C286.654 1.13101 285.791 1.29101 285.42 1.64101C285.211 1.83801 284.457 2.00001 283.744 2.00001C283.031 2.00001 282.336 2.18001 282.2 2.40001C282.064 2.62001 281.243 2.80001 280.376 2.80001C279.509 2.80001 278.8 2.98001 278.8 3.20001C278.8 3.42001 278.35 3.60001 277.8 3.60001C277.25 3.60001 276.8 3.78001 276.8 4.00001C276.8 4.22001 276.35 4.40001 275.8 4.40001C275.25 4.40001 274.8 4.58001 274.8 4.80001C274.8 5.02001 274.26 5.20001 273.6 5.20001C272.94 5.20001 272.4 5.38001 272.4 5.60001C272.4 5.82001 271.961 6.00001 271.424 6.00001C270.887 6.00001 270.336 6.18001 270.2 6.40001C270.064 6.62001 269.603 6.80001 269.176 6.80001C268.749 6.80001 268.4 6.98001 268.4 7.20001C268.4 7.42001 268.04 7.60001 267.6 7.60001C267.16 7.60001 266.8 7.78001 266.8 8.00001C266.8 8.22001 266.514 8.40001 266.165 8.40001C265.057 8.40001 257.124 12.523 256.867 13.232C256.793 13.435 256.388 13.6 255.967 13.6C255.545 13.6 255.2 13.75 255.2 13.932C255.2 14.115 254.705 14.52 254.1 14.832C253.495 15.145 252.6 15.792 252.111 16.271C251.622 16.75 250.677 17.464 250.011 17.857C249.345 18.251 248.8 18.714 248.8 18.886C248.8 19.059 248.545 19.2 248.233 19.2C247.922 19.2 246.515 20.325 245.106 21.7C243.698 23.075 242.037 24.56 241.416 25C240.484 25.66 235.744 30.347 224.523 41.707C223.82 42.418 220.13 46.087 216.323 49.859C212.515 53.632 209.011 57.142 208.535 57.659C208.06 58.177 204.37 61.89 200.335 65.912C196.301 69.933 192.426 73.803 191.724 74.512C190.472 75.775 176.66 89.579 174.909 91.316C160.183 105.925 158.4 107.752 158.4 108.222C158.4 108.341 157.5 109.338 156.4 110.438C155.3 111.538 154.4 112.532 154.4 112.647C154.4 112.949 151.96 116.462 151.117 117.375C150.722 117.802 150.4 118.347 150.4 118.587C150.4 118.827 150.04 119.283 149.6 119.6C149.16 119.917 148.8 120.414 148.8 120.705C148.8 120.996 148.44 121.62 148 122.092C147.56 122.564 147.2 123.187 147.2 123.475C147.2 123.764 147.009 124 146.776 124C146.543 124 146.451 124.159 146.571 124.353C146.691 124.547 146.374 125.316 145.868 126.062C145.362 126.808 144.69 127.999 144.376 128.709C144.062 129.419 143.669 130 143.502 130C143.336 130 143.2 130.349 143.2 130.776C143.2 131.203 143.03 131.658 142.823 131.786C142.616 131.914 142.325 132.824 142.178 133.809C142.03 134.794 141.75 135.6 141.555 135.6C141.36 135.6 141.2 135.949 141.2 136.376C141.2 136.803 141.02 137.264 140.8 137.4C140.58 137.536 140.4 138.177 140.4 138.824C140.4 140.29 140.74 140.3 145.2 138.968C147.07 138.41 149.41 137.8 150.4 137.614C151.39 137.427 153.64 137.005 155.4 136.676C164.542 134.966 178.153 134.954 186.6 136.648C188.14 136.957 190.3 137.384 191.4 137.596C192.5 137.808 194.03 138.156 194.8 138.369C195.57 138.582 197.667 139.164 199.459 139.664L202.718 140.572L241.592 101.686C262.973 80.299 280.631 62.8 280.833 62.8C281.035 62.8 281.2 62.62 281.2 62.4C281.2 62.18 281.43 62 281.712 62C281.993 62 282.483 61.64 282.8 61.2C283.117 60.76 283.697 60.4 284.088 60.4C284.48 60.4 284.8 60.249 284.8 60.065C284.8 59.881 285.835 59.233 287.1 58.624C288.365 58.015 290.055 57.175 290.854 56.758C291.654 56.341 292.869 56 293.554 56C294.24 56 294.8 55.82 294.8 55.6C294.8 55.38 295.34 55.2 296 55.2C296.66 55.2 297.2 55.02 297.2 54.8C297.2 54.578 298.259 54.4 299.576 54.4C300.883 54.4 302.064 54.22 302.2 54C302.497 53.519 310 53.456 310 53.934C310 54.118 311.125 54.309 312.5 54.357C313.875 54.406 315.171 54.616 315.38 54.823C315.589 55.03 316.163 55.2 316.656 55.2C317.149 55.2 317.649 55.356 317.768 55.547C317.886 55.739 318.698 56.009 319.573 56.149C321.699 56.489 327.95 59.705 329.976 61.5C330.535 61.995 331.126 62.4 331.289 62.4C331.706 62.4 337.6 68.336 337.6 68.756C337.6 68.945 338.23 69.787 339 70.628C339.77 71.469 340.4 72.391 340.4 72.678C340.4 72.965 340.536 73.2 340.702 73.2C340.869 73.2 341.253 73.785 341.556 74.5C343.71 79.581 343.821 79.875 344.393 82C344.66 82.99 345.03 84.096 345.217 84.459C345.403 84.821 345.595 86.216 345.643 87.559C345.692 88.901 345.882 90 346.066 90C346.25 90 346.4 91.71 346.4 93.8C346.4 95.89 346.235 97.6 346.034 97.6C345.833 97.6 345.579 98.725 345.469 100.1C345.214 103.316 344.802 105.2 344.355 105.2C344.16 105.2 344 105.601 344 106.092C344 107.17 342.004 112.546 341.534 112.733C341.35 112.807 341.2 113.172 341.2 113.545C341.2 113.918 340.84 114.483 340.4 114.8C339.96 115.117 339.6 115.605 339.6 115.884C339.6 116.353 338.921 117.33 337.7 118.616C337.425 118.906 337.2 119.236 337.2 119.35C337.2 119.464 319.74 137.008 298.4 158.338C272.697 184.029 259.6 197.391 259.6 197.923C259.6 199.282 253.347 204.487 248.713 206.985C237.24 213.171 222.631 213.458 210.8 207.73C206.212 205.509 204.731 204.424 198.813 198.955C185.1 186.284 163.455 184.718 147.895 195.273C142.145 199.174 138.907 203.43 140.8 204.6C141.02 204.736 141.2 205.197 141.2 205.624C141.2 206.051 141.36 206.4 141.556 206.4C141.752 206.4 142 206.985 142.106 207.7C142.297 208.981 143.21 211.61 143.6 212C144.138 212.538 145.205 214.801 144.923 214.806C144.745 214.809 144.784 214.944 145.01 215.106C145.235 215.268 145.865 216.255 146.409 217.3C146.953 218.345 147.5 219.2 147.625 219.2C147.749 219.2 148.098 219.83 148.4 220.6C148.702 221.37 149.096 222 149.275 222C149.454 222 149.6 222.281 149.6 222.624C149.6 222.967 149.78 223.136 150 223C150.22 222.864 150.4 223.051 150.4 223.416C150.4 223.781 150.94 224.583 151.6 225.2C152.26 225.817 152.8 226.52 152.8 226.764C152.8 227.008 153.34 227.772 154 228.463C154.66 229.154 155.2 229.877 155.2 230.07C155.2 230.263 155.965 231.192 156.9 232.135C157.835 233.077 159.23 234.644 160 235.616C161.586 237.618 162.457 238.486 164.601 240.2C165.427 240.86 167.065 242.345 168.242 243.5C169.419 244.655 170.617 245.6 170.903 245.6C171.189 245.6 171.683 245.96 172 246.4C172.317 246.84 172.78 247.2 173.029 247.2C173.278 247.2 174.046 247.74 174.737 248.4C175.428 249.06 176.174 249.6 176.396 249.6C176.618 249.6 176.8 249.745 176.8 249.921C176.8 250.098 177.697 250.683 178.794 251.221C179.89 251.76 180.79 252.304 180.794 252.432C180.797 252.559 181.7 253.085 182.8 253.6C183.9 254.115 184.8 254.686 184.8 254.868C184.8 255.051 185.16 255.2 185.6 255.2C186.04 255.2 186.4 255.38 186.4 255.6C186.4 255.82 186.672 256 187.005 256C187.338 256 187.923 256.166 188.305 256.368C190.576 257.57 192.4 258.336 193.616 258.596C194.377 258.759 195.231 259.079 195.514 259.307C195.796 259.535 196.606 259.703 197.314 259.68C198.021 259.657 200.4 260.168 202.6 260.814C219.686 265.834 239.613 265.763 256.187 260.622C258.611 259.87 259.456 259.749 259.717 260.117C259.984 260.492 260.106 260.488 260.264 260.1C260.375 259.825 260.891 259.6 261.41 259.6C261.928 259.6 262.45 259.443 262.568 259.252C262.686 259.06 263.368 258.786 264.082 258.644C264.796 258.501 266.195 258.01 267.19 257.554C271.344 255.649 274.208 254.185 274.333 253.902C274.407 253.736 274.812 253.6 275.233 253.6C275.655 253.6 276 253.442 276 253.249C276 253.055 276.54 252.673 277.2 252.4C277.86 252.127 278.4 251.745 278.4 251.551C278.4 251.358 278.694 251.2 279.053 251.2C279.412 251.2 279.997 250.884 280.353 250.497C280.709 250.111 281.495 249.54 282.1 249.23C282.705 248.919 283.2 248.515 283.2 248.332C283.2 248.15 283.47 248 283.8 248C284.13 248 284.4 247.82 284.4 247.6C284.4 247.38 284.67 247.2 285 247.2C285.33 247.2 285.6 247.05 285.6 246.868C285.6 246.685 286.084 246.28 286.676 245.968C287.268 245.655 288.69 244.5 289.836 243.4C292.561 240.784 294.4 239.169 294.4 239.392C294.4 239.49 297.288 236.652 300.818 233.085C304.348 229.518 307.929 225.906 308.776 225.058C320.598 213.219 323.56 210.254 323.853 209.964C324.425 209.398 341.358 192.488 341.919 191.923C342.204 191.635 349.494 184.369 358.119 175.775C366.743 167.182 374.517 159.262 375.394 158.175C376.271 157.089 377.846 155.357 378.894 154.326C379.942 153.295 380.8 152.25 380.8 152.004C380.8 151.758 381.339 150.981 381.998 150.278C382.657 149.575 383.197 148.841 383.198 148.647C383.199 148.453 383.528 148.003 383.928 147.647C384.329 147.291 385.094 146.19 385.628 145.2C386.163 144.21 386.698 143.31 386.818 143.2C387.727 142.366 391.6 134.871 391.6 133.947C391.6 133.536 391.78 133.2 392 133.2C392.22 133.2 392.4 132.84 392.4 132.4C392.4 131.96 392.58 131.6 392.8 131.6C393.02 131.6 393.2 131.24 393.2 130.8C393.2 130.36 393.38 130 393.6 130C393.82 130 394 129.46 394 128.8C394 128.14 394.18 127.6 394.4 127.6C394.62 127.6 394.8 127.06 394.8 126.4C394.8 125.74 394.98 125.2 395.2 125.2C395.42 125.2 395.6 124.75 395.6 124.2C395.6 123.65 395.78 123.2 396 123.2C396.22 123.2 396.4 122.75 396.4 122.2C396.4 121.65 396.58 121.2 396.8 121.2C397.02 121.2 397.2 120.491 397.2 119.624C397.2 118.757 397.38 117.936 397.6 117.8C397.82 117.664 398 116.944 398 116.2C398 115.456 398.18 114.736 398.4 114.6C398.62 114.464 398.8 113.589 398.8 112.656C398.8 111.723 399.025 110.735 399.3 110.46C399.684 110.076 399.8 106.097 399.8 93.313C399.8 80.351 399.689 76.63 399.3 76.5C399.015 76.405 398.8 75.669 398.8 74.79C398.8 73.942 398.62 73.136 398.4 73C398.18 72.864 398 72.054 398 71.2C398 70.346 397.82 69.536 397.6 69.4C397.38 69.264 397.2 68.722 397.2 68.195C397.2 67.669 396.998 66.734 396.75 66.119C396.503 65.503 396.122 64.55 395.904 64C395.685 63.45 395.348 62.687 395.153 62.305C394.959 61.923 394.8 61.259 394.8 60.829C394.8 60.399 394.62 59.936 394.4 59.8C394.18 59.664 394 59.113 394 58.576C394 58.039 393.82 57.6 393.6 57.6C393.38 57.6 393.2 57.24 393.2 56.8C393.2 56.36 393.02 56 392.8 56C392.58 56 392.4 55.64 392.4 55.2C392.4 54.76 392.24 54.4 392.045 54.4C391.849 54.4 391.571 53.773 391.428 53.006C391.199 51.786 389.764 48.563 389.199 48C389.089 47.89 388.744 47.305 388.432 46.7C388.12 46.095 387.715 45.6 387.532 45.6C387.35 45.6 387.2 45.24 387.2 44.8C387.2 44.36 387.02 44 386.8 44C386.58 44 386.4 43.73 386.4 43.4C386.4 43.07 386.22 42.8 386 42.8C385.78 42.8 385.6 42.53 385.6 42.2C385.6 41.87 385.42 41.6 385.2 41.6C384.98 41.6 384.8 41.412 384.8 41.182C384.8 40.952 384.35 40.314 383.8 39.764C383.25 39.214 382.8 38.6 382.8 38.4C382.8 38.2 382.35 37.586 381.8 37.036C381.25 36.486 380.8 35.872 380.8 35.672C380.8 35.471 379.81 34.277 378.6 33.018C377.39 31.758 376.4 30.577 376.4 30.393C376.4 29.923 371.559 25.108 369.939 23.966C369.202 23.447 367.757 22.162 366.726 21.111C365.695 20.06 364.659 19.2 364.422 19.2C364.186 19.2 363.428 18.66 362.737 18C362.046 17.34 361.31 16.8 361.101 16.8C360.892 16.8 360.217 16.26 359.6 15.6C358.983 14.94 358.191 14.4 357.84 14.4C357.488 14.4 357.2 14.264 357.2 14.098C357.2 13.931 356.63 13.543 355.933 13.235C355.237 12.926 353.66 12.005 352.428 11.187C351.197 10.369 349.202 9.36301 347.995 8.95001C346.788 8.53801 345.74 8.06501 345.667 7.90001C345.593 7.73501 345.188 7.60001 344.767 7.60001C344.345 7.60001 344 7.42001 344 7.20001C344 6.98001 343.64 6.80001 343.2 6.80001C342.76 6.80001 342.4 6.62001 342.4 6.40001C342.4 6.18001 341.86 6.00001 341.2 6.00001C340.54 6.00001 340 5.82001 340 5.60001C340 5.38001 339.55 5.20001 339 5.20001C338.45 5.20001 338 5.02001 338 4.80001C338 4.58001 337.638 4.40001 337.195 4.40001C336.752 4.40001 336.032 4.22001 335.595 4.00001C335.158 3.78001 334.442 3.42001 334.005 3.20001C333.568 2.98001 332.679 2.80001 332.029 2.80001C331.379 2.80001 330.736 2.62001 330.6 2.40001C330.464 2.18001 329.654 2.00001 328.8 2.00001C327.946 2.00001 327.136 1.82001 327 1.60001C326.864 1.38001 326.043 1.20001 325.176 1.20001C324.309 1.20001 323.6 1.05001 323.6 0.867013C323.6 0.241013 296.271 -0.141987 292 0.423013Z" fill="#A3E3FC"/>
<path fill-rule="evenodd" clip-rule="evenodd" d="M161.8 135.824C158.94 136.116 155.7 136.547 154.6 136.782C153.5 137.017 151.97 137.316 151.2 137.448C150.43 137.58 147.929 138.221 145.642 138.872C143.355 139.524 141.071 139.954 140.566 139.827C140.062 139.701 139.537 139.778 139.401 139.999C139.264 140.219 138.713 140.4 138.176 140.4C137.639 140.4 137.2 140.541 137.2 140.713C137.2 140.885 136.345 141.268 135.3 141.565C134.255 141.862 132.86 142.333 132.2 142.612C131.54 142.891 130.415 143.361 129.7 143.657C128.985 143.953 128.4 144.298 128.4 144.423C128.4 144.548 127.77 144.898 127 145.2C126.23 145.502 125.6 145.896 125.6 146.075C125.6 146.254 125.24 146.4 124.8 146.4C124.36 146.4 124 146.58 124 146.8C124 147.02 123.64 147.2 123.2 147.2C122.76 147.2 122.4 147.368 122.4 147.573C122.4 147.778 122.034 148.062 121.587 148.204C121.14 148.346 120.338 148.898 119.805 149.431C119.272 149.964 118.598 150.4 118.306 150.4C118.015 150.4 117.517 150.76 117.2 151.2C116.883 151.64 116.391 152 116.108 152C115.825 152 115.028 152.54 114.337 153.2C113.646 153.86 112.923 154.4 112.73 154.4C112.195 154.4 108.822 157.889 109.095 158.161C109.226 158.293 109.035 158.4 108.67 158.4C107.652 158.4 106.907 159.105 91.627 174.541C91.025 175.149 75.001 191.172 74.484 191.684C74.262 191.902 70.545 195.618 66.222 199.941C61.899 204.263 58.183 207.98 57.963 208.2C57.743 208.42 54.053 212.11 49.763 216.4C45.473 220.69 41.836 224.331 41.681 224.491C41.527 224.651 37.8899 228.281 33.5999 232.557C29.3099 236.834 25.08 241.175 24.2 242.203C23.32 243.232 21.835 244.862 20.9 245.826C19.965 246.79 19.2 247.737 19.2 247.93C19.2 248.123 18.66 248.846 18 249.537C17.34 250.228 16.7999 250.992 16.7999 251.236C16.7999 251.48 16.26 252.183 15.6 252.8C14.94 253.417 14.4 254.209 14.4 254.56C14.4 254.912 14.22 255.2 14 255.2C13.78 255.2 13.6 255.478 13.6 255.817C13.6 256.156 13.24 256.82 12.8 257.292C12.36 257.764 12 258.387 12 258.675C12 258.964 11.82 259.2 11.6 259.2C11.38 259.2 11.2 259.397 11.2 259.638C11.2 259.879 10.862 260.554 10.449 261.138C10.035 261.722 9.35995 263.19 8.94895 264.4C8.53695 265.61 8.06495 266.66 7.89995 266.733C7.73495 266.807 7.59995 267.212 7.59995 267.633C7.59995 268.055 7.41995 268.4 7.19995 268.4C6.97995 268.4 6.79995 268.76 6.79995 269.2C6.79995 269.64 6.61995 270 6.39995 270C6.17995 270 5.99995 270.54 5.99995 271.2C5.99995 271.86 5.81995 272.4 5.59995 272.4C5.37995 272.4 5.19995 272.94 5.19995 273.6C5.19995 274.26 5.01995 274.8 4.79995 274.8C4.57995 274.8 4.39995 275.25 4.39995 275.8C4.39995 276.35 4.21995 276.8 3.99995 276.8C3.77995 276.8 3.59995 277.25 3.59995 277.8C3.59995 278.35 3.41995 278.8 3.19995 278.8C2.97995 278.8 2.79995 279.419 2.79995 280.176C2.79995 280.933 2.61995 281.664 2.39995 281.8C2.17995 281.936 1.99995 282.746 1.99995 283.6C1.99995 284.454 1.81995 285.264 1.59995 285.4C1.37995 285.536 1.19995 286.342 1.19995 287.19C1.19995 288.069 0.984951 288.805 0.699951 288.9C0.309951 289.03 0.199951 292.849 0.199951 306.2C0.199951 319.551 0.309951 323.37 0.699951 323.5C0.984951 323.595 1.19995 324.331 1.19995 325.21C1.19995 326.058 1.37995 326.864 1.59995 327C1.81995 327.136 1.99995 327.946 1.99995 328.8C1.99995 329.654 2.17995 330.464 2.39995 330.6C2.61995 330.736 2.79995 331.379 2.79995 332.029C2.79995 332.679 2.97995 333.568 3.19995 334.005C3.41995 334.442 3.77995 335.158 3.99995 335.595C4.21995 336.032 4.39995 336.752 4.39995 337.195C4.39995 337.638 4.57995 338 4.79995 338C5.01995 338 5.19995 338.54 5.19995 339.2C5.19995 339.86 5.37995 340.4 5.59995 340.4C5.81995 340.4 5.99995 340.85 5.99995 341.4C5.99995 341.95 6.17995 342.4 6.39995 342.4C6.61995 342.4 6.79995 342.76 6.79995 343.2C6.79995 343.64 6.97995 344 7.19995 344C7.41995 344 7.59995 344.36 7.59995 344.8C7.59995 345.24 7.77995 345.6 7.99995 345.6C8.21995 345.6 8.39995 345.949 8.39995 346.376C8.39995 346.803 8.58295 347.266 8.80695 347.404C9.02995 347.542 9.11295 347.817 8.99095 348.014C8.78395 348.35 10.208 351.562 10.759 352C10.898 352.11 11.442 353.055 11.968 354.1C12.495 355.145 13.034 356 13.165 356C13.297 356 13.662 356.585 13.975 357.3C14.289 358.015 15.053 359.077 15.673 359.66C16.293 360.244 16.7999 360.969 16.7999 361.272C16.7999 361.575 17.16 362.083 17.6 362.4C18.04 362.717 18.4 363.189 18.4 363.448C18.4 363.707 19.3 364.838 20.4 365.961C21.5 367.085 22.4 368.091 22.4 368.197C22.4 368.978 31.0219 377.6 31.8029 377.6C31.9089 377.6 32.915 378.5 34.039 379.6C35.162 380.7 36.2929 381.6 36.5519 381.6C36.8109 381.6 37.2829 381.96 37.5999 382.4C37.9169 382.84 38.425 383.2 38.728 383.2C39.031 383.2 39.756 383.707 40.34 384.327C40.923 384.947 41.985 385.711 42.7 386.025C43.415 386.338 44 386.703 44 386.835C44 386.966 44.855 387.505 45.9 388.032C46.945 388.558 47.89 389.102 48 389.241C48.435 389.788 51.5189 391.149 52.9189 391.411C53.7329 391.564 54.4 391.849 54.4 392.045C54.4 392.24 54.76 392.4 55.2 392.4C55.64 392.4 56 392.58 56 392.8C56 393.02 56.3599 393.2 56.7999 393.2C57.2399 393.2 57.5999 393.38 57.5999 393.6C57.5999 393.82 58.0499 394 58.5999 394C59.1499 394 59.5999 394.18 59.5999 394.4C59.5999 394.62 60.1399 394.8 60.7999 394.8C61.4599 394.8 62 394.98 62 395.2C62 395.42 62.362 395.6 62.805 395.6C63.583 395.6 63.969 395.742 65.895 396.738C66.387 396.992 67.321 397.2 67.971 397.2C68.621 397.2 69.264 397.38 69.4 397.6C69.536 397.82 70.346 398 71.2 398C72.054 398 72.864 398.18 73 398.4C73.136 398.62 73.942 398.8 74.79 398.8C75.669 398.8 76.405 399.015 76.5 399.3C76.63 399.69 80.449 399.8 93.8 399.8C107.151 399.8 110.97 399.69 111.1 399.3C111.195 399.015 111.931 398.8 112.81 398.8C113.658 398.8 114.464 398.62 114.6 398.4C114.736 398.18 115.546 398 116.4 398C117.254 398 118.064 397.82 118.2 397.6C118.336 397.38 119.067 397.2 119.824 397.2C120.581 397.2 121.2 397.02 121.2 396.8C121.2 396.58 121.65 396.4 122.2 396.4C122.75 396.4 123.2 396.22 123.2 396C123.2 395.78 123.65 395.6 124.2 395.6C124.75 395.6 125.2 395.42 125.2 395.2C125.2 394.98 125.74 394.8 126.4 394.8C127.06 394.8 127.6 394.62 127.6 394.4C127.6 394.18 128.14 394 128.8 394C129.46 394 130 393.82 130 393.6C130 393.38 130.36 393.2 130.8 393.2C131.24 393.2 131.6 393.02 131.6 392.8C131.6 392.58 131.96 392.4 132.4 392.4C132.84 392.4 133.2 392.24 133.2 392.045C133.2 391.849 133.827 391.571 134.594 391.428C135.814 391.199 139.037 389.764 139.6 389.199C139.71 389.089 140.292 388.745 140.893 388.435C141.495 388.126 142.342 387.541 142.777 387.136C143.211 386.731 143.844 386.4 144.183 386.4C144.522 386.4 144.8 386.22 144.8 386C144.8 385.78 145.088 385.6 145.44 385.6C145.791 385.6 146.583 385.06 147.2 384.4C147.817 383.74 148.52 383.2 148.764 383.2C149.008 383.2 149.772 382.66 150.463 382C151.154 381.34 151.877 380.8 152.07 380.8C152.263 380.8 153.204 380.035 154.161 379.1C155.117 378.165 156.57 376.86 157.389 376.2C158.208 375.54 166.222 367.647 175.198 358.659C184.175 349.672 191.726 342.112 191.978 341.859C192.231 341.607 203.094 330.765 216.119 317.767C238.771 295.161 241.6 292.275 241.6 291.771C241.6 291.648 242.5 290.671 243.6 289.6C244.7 288.529 245.6 287.487 245.6 287.285C245.6 287.084 246.14 286.354 246.8 285.663C247.46 284.972 248 284.175 248 283.892C248 283.609 248.36 283.117 248.8 282.8C249.24 282.483 249.6 281.985 249.6 281.694C249.6 281.402 250.036 280.728 250.569 280.195C251.102 279.662 251.654 278.86 251.796 278.413C251.938 277.966 252.222 277.6 252.427 277.6C252.632 277.6 252.8 277.255 252.8 276.833C252.8 276.412 252.935 276.007 253.1 275.933C253.265 275.86 253.848 274.9 254.395 273.8C254.942 272.7 255.482 271.71 255.595 271.6C255.709 271.49 256.008 270.95 256.261 270.4C257.817 267.012 258.368 265.578 258.613 264.271C258.765 263.462 259.029 262.8 259.199 262.8C259.597 262.8 259.936 260.544 259.616 260.026C259.467 259.785 258.142 260.015 256.187 260.622C239.545 265.784 219.637 265.837 202.448 260.764C197.434 259.285 196.953 259.372 194.271 262.259C193.132 263.485 189.41 267.251 186 270.627C178.126 278.423 178.081 278.467 169.986 286.706C166.254 290.504 163.2 293.495 163.2 293.352C163.2 293.21 162.165 294.225 160.9 295.608C157.935 298.849 148.849 307.935 145.608 310.9C144.225 312.165 143.201 313.2 143.334 313.2C143.569 313.2 134.226 322.583 129.151 327.444C127.748 328.788 125.07 331.525 123.2 333.526C121.33 335.527 119.557 337.172 119.26 337.182C118.964 337.192 118.217 337.74 117.6 338.4C116.983 339.06 116.231 339.6 115.928 339.6C115.625 339.6 115.117 339.96 114.8 340.4C114.483 340.84 113.903 341.2 113.512 341.2C113.12 341.2 112.8 341.38 112.8 341.6C112.8 341.82 112.482 342 112.094 342C111.706 342 110.716 342.36 109.894 342.801C109.072 343.241 108.4 343.475 108.4 343.321C108.4 343.166 108.184 343.256 107.92 343.52C107.656 343.784 106.936 344 106.32 344C105.704 344 105.2 344.18 105.2 344.4C105.2 344.62 104.66 344.8 104 344.8C103.34 344.8 102.8 344.98 102.8 345.2C102.8 345.425 101.675 345.6 100.224 345.6C98.807 345.6 97.536 345.78 97.4 346C97.264 346.22 95.543 346.4 93.576 346.4C91.459 346.4 90 346.237 90 346C90 345.778 88.941 345.6 87.624 345.6C86.317 345.6 85.136 345.42 85 345.2C84.864 344.98 84.223 344.8 83.576 344.8C82.929 344.8 82.4 344.62 82.4 344.4C82.4 344.18 82.037 344 81.594 344C80.538 344 77.6 343.078 77.6 342.747C77.6 342.605 76.97 342.371 76.2 342.226C75.43 342.082 74.8 341.792 74.8 341.582C74.8 341.372 74.44 341.2 74 341.2C73.56 341.2 73.2 341.05 73.2 340.868C73.2 340.685 72.708 340.28 72.107 339.968C71.506 339.655 70.489 338.905 69.848 338.3C69.206 337.695 68.525 337.2 68.333 337.2C67.879 337.2 62.7999 332.121 62.7999 331.667C62.7999 331.475 62.2599 330.754 61.5999 330.063C60.9399 329.372 60.4 328.654 60.4 328.466C60.4 328.278 60.05 327.807 59.623 327.421C59.195 327.034 58.7309 326.198 58.5919 325.563C58.4529 324.928 58.172 324.306 57.969 324.181C57.766 324.055 57.5999 323.603 57.5999 323.176C57.5999 322.749 57.464 322.4 57.297 322.4C56.931 322.4 56 319.533 56 318.406C56 317.963 55.8199 317.6 55.5999 317.6C55.3799 317.6 55.2 317.071 55.2 316.424C55.2 315.777 55.0199 315.136 54.7999 315C54.5799 314.864 54.4 313.683 54.4 312.376C54.4 311.059 54.222 310 54 310C53.763 310 53.5999 308.541 53.5999 306.424C53.5999 304.457 53.78 302.736 54 302.6C54.22 302.464 54.4 301.294 54.4 300C54.4 298.706 54.5799 297.536 54.7999 297.4C55.0199 297.264 55.2 296.623 55.2 295.976C55.2 295.329 55.3799 294.8 55.5999 294.8C55.8199 294.8 56 294.348 56 293.795C56 293.242 56.164 292.477 56.365 292.095C57.452 290.027 58.7999 286.847 58.7999 286.348C58.7999 286.034 59.1599 285.517 59.5999 285.2C60.0399 284.883 60.4 284.375 60.4 284.072C60.4 283.769 60.9399 283.017 61.5999 282.4C62.2599 281.783 62.808 281.036 62.818 280.74C62.828 280.443 64.473 278.67 66.474 276.8C68.475 274.93 71.212 272.253 72.556 270.851C74.779 268.532 80.909 262.394 87.189 256.2C90.671 252.765 103.364 240.066 106.2 237.179C107.52 235.836 111.21 232.149 114.4 228.987C121.45 221.999 121.79 221.659 128.994 214.4C132.159 211.21 136.021 207.375 137.575 205.877C139.129 204.38 140.4 202.826 140.4 202.423C140.4 201.542 144.7 197.441 147.895 195.273C163.455 184.718 185.1 186.284 198.813 198.955C204.731 204.424 206.212 205.509 210.8 207.73C226.437 215.301 244.228 212.542 257.667 200.463C259.58 198.744 260.447 195.771 259.252 195.032C259.06 194.914 258.795 194.274 258.662 193.611C258.529 192.947 258.056 191.65 257.61 190.727C257.165 189.805 256.8 188.814 256.8 188.525C256.8 188.236 256.62 188 256.4 188C256.18 188 256 187.64 256 187.2C256 186.76 255.82 186.4 255.6 186.4C255.38 186.4 255.2 186.055 255.2 185.633C255.2 185.212 255.065 184.807 254.9 184.733C254.735 184.66 254.167 183.745 253.637 182.7C253.108 181.655 252.523 180.8 252.337 180.8C252.152 180.8 252 180.44 252 180C252 179.56 251.82 179.2 251.6 179.2C251.38 179.2 251.2 178.964 251.2 178.675C251.2 178.387 250.84 177.764 250.4 177.292C249.96 176.82 249.6 176.318 249.6 176.177C249.6 176.036 249.06 175.417 248.4 174.8C247.74 174.183 247.2 173.431 247.2 173.128C247.2 172.825 246.84 172.317 246.4 172C245.96 171.683 245.6 171.189 245.6 170.903C245.6 170.617 244.655 169.422 243.5 168.247C242.345 167.073 241.043 165.592 240.608 164.956C239.588 163.469 236.531 160.412 235.044 159.392C234.408 158.957 232.927 157.655 231.753 156.5C230.578 155.345 229.383 154.4 229.097 154.4C228.811 154.4 228.317 154.04 228 153.6C227.683 153.16 227.175 152.8 226.872 152.8C226.569 152.8 225.817 152.26 225.2 151.6C224.583 150.94 223.964 150.4 223.823 150.4C223.682 150.4 223.18 150.04 222.708 149.6C222.236 149.16 221.613 148.8 221.325 148.8C221.036 148.8 220.8 148.62 220.8 148.4C220.8 148.18 220.44 148 220 148C219.56 148 219.2 147.848 219.2 147.663C219.2 147.477 218.345 146.892 217.3 146.363C216.255 145.833 215.34 145.265 215.267 145.1C215.193 144.935 214.788 144.8 214.367 144.8C213.945 144.8 213.6 144.62 213.6 144.4C213.6 144.18 213.24 144 212.8 144C212.36 144 212 143.82 212 143.6C212 143.38 211.651 143.2 211.224 143.2C210.797 143.2 210.345 143.034 210.219 142.831C210.094 142.628 209.414 142.335 208.709 142.18C207.497 141.914 207.134 141.771 205.205 140.8C204.768 140.58 203.823 140.4 203.104 140.4C202.385 140.4 200.538 140.025 198.999 139.567C195.058 138.394 193.684 138.037 191.4 137.592C190.3 137.377 188.59 137.023 187.6 136.804C181.237 135.399 170.097 134.975 161.8 135.824Z" fill="#4CACE4"/>
</svg>
